<mxfile host="app.diagrams.net" agent="Mozilla/5.0 (Windows NT 10.0; Win64; x64) AppleWebKit/537.36 (KHTML, like Gecko) Chrome/131.0.0.0 Safari/537.36 Edg/131.0.0.0" version="25.0.1">
  <diagram name="Page-1" id="NbP8jOEgrULWILAlgNmU">
    <mxGraphModel dx="1425" dy="763" grid="1" gridSize="10" guides="1" tooltips="1" connect="1" arrows="1" fold="1" page="1" pageScale="1" pageWidth="850" pageHeight="1100" math="0" shadow="0">
      <root>
        <mxCell id="0" />
        <mxCell id="1" parent="0" />
        <mxCell id="IMdrUk2hQlkFjjgOL2_2-33" value="Perceptron" style="shape=umlLifeline;perimeter=lifelinePerimeter;whiteSpace=wrap;html=1;container=1;collapsible=0;recursiveResize=0;outlineConnect=0;rounded=1;shadow=0;comic=0;labelBackgroundColor=none;strokeWidth=1;fontFamily=Verdana;fontSize=12;align=center;" vertex="1" parent="1">
          <mxGeometry x="1100" y="80" width="100" height="580" as="geometry" />
        </mxCell>
        <mxCell id="IMdrUk2hQlkFjjgOL2_2-34" value="" style="html=1;points=[];perimeter=orthogonalPerimeter;rounded=0;shadow=0;comic=0;labelBackgroundColor=none;strokeWidth=1;fontFamily=Verdana;fontSize=12;align=center;" vertex="1" parent="IMdrUk2hQlkFjjgOL2_2-33">
          <mxGeometry x="45" y="180.46" width="10" height="39.54" as="geometry" />
        </mxCell>
        <mxCell id="IMdrUk2hQlkFjjgOL2_2-28" value="Injection&lt;div&gt;Connectom(s)&lt;/div&gt;" style="shape=umlLifeline;perimeter=lifelinePerimeter;whiteSpace=wrap;html=1;container=1;collapsible=0;recursiveResize=0;outlineConnect=0;rounded=1;shadow=0;comic=0;labelBackgroundColor=none;strokeWidth=1;fontFamily=Verdana;fontSize=12;align=center;" vertex="1" parent="1">
          <mxGeometry x="899.56" y="80" width="100" height="580" as="geometry" />
        </mxCell>
        <mxCell id="IMdrUk2hQlkFjjgOL2_2-7" value="Effector(s)" style="shape=umlLifeline;perimeter=lifelinePerimeter;whiteSpace=wrap;html=1;container=1;collapsible=0;recursiveResize=0;outlineConnect=0;rounded=1;shadow=0;comic=0;labelBackgroundColor=none;strokeWidth=1;fontFamily=Verdana;fontSize=12;align=center;" vertex="1" parent="1">
          <mxGeometry x="40" y="80" width="100" height="580" as="geometry" />
        </mxCell>
        <mxCell id="IMdrUk2hQlkFjjgOL2_2-23" value="" style="html=1;points=[];perimeter=orthogonalPerimeter;rounded=0;shadow=0;comic=0;labelBackgroundColor=none;strokeWidth=1;fontFamily=Verdana;fontSize=12;align=center;" vertex="1" parent="IMdrUk2hQlkFjjgOL2_2-7">
          <mxGeometry x="45" y="60" width="10" height="40" as="geometry" />
        </mxCell>
        <mxCell id="IMdrUk2hQlkFjjgOL2_2-8" value="Reservior Connectom(s)" style="shape=umlLifeline;perimeter=lifelinePerimeter;whiteSpace=wrap;html=1;container=1;collapsible=0;recursiveResize=0;outlineConnect=0;rounded=1;shadow=0;comic=0;labelBackgroundColor=none;strokeWidth=1;fontFamily=Verdana;fontSize=12;align=center;" vertex="1" parent="1">
          <mxGeometry x="760" y="80" width="100" height="670" as="geometry" />
        </mxCell>
        <mxCell id="IMdrUk2hQlkFjjgOL2_2-12" value="Readout Connectom(s)" style="shape=umlLifeline;perimeter=lifelinePerimeter;whiteSpace=wrap;html=1;container=1;collapsible=0;recursiveResize=0;outlineConnect=0;rounded=1;shadow=0;comic=0;labelBackgroundColor=none;strokeWidth=1;fontFamily=Verdana;fontSize=12;align=center;" vertex="1" parent="IMdrUk2hQlkFjjgOL2_2-8">
          <mxGeometry x="-140" width="100" height="580" as="geometry" />
        </mxCell>
        <mxCell id="IMdrUk2hQlkFjjgOL2_2-9" value="" style="html=1;points=[];perimeter=orthogonalPerimeter;rounded=0;shadow=0;comic=0;labelBackgroundColor=none;strokeWidth=1;fontFamily=Verdana;fontSize=12;align=center;" vertex="1" parent="IMdrUk2hQlkFjjgOL2_2-8">
          <mxGeometry x="45" y="140.46" width="10" height="40" as="geometry" />
        </mxCell>
        <mxCell id="IMdrUk2hQlkFjjgOL2_2-10" value="Token" style="html=1;verticalAlign=bottom;endArrow=block;labelBackgroundColor=none;fontFamily=Verdana;fontSize=12;elbow=vertical;entryX=-0.043;entryY=0.23;entryDx=0;entryDy=0;entryPerimeter=0;exitX=1.044;exitY=0.053;exitDx=0;exitDy=0;exitPerimeter=0;" edge="1" parent="IMdrUk2hQlkFjjgOL2_2-8">
          <mxGeometry relative="1" as="geometry">
            <mxPoint x="-84.55999999999995" y="139.99999999999997" as="sourcePoint" />
            <mxPoint x="44.570000000000164" y="140.45999999999995" as="targetPoint" />
          </mxGeometry>
        </mxCell>
        <mxCell id="IMdrUk2hQlkFjjgOL2_2-11" value="Gradient, Sub-Route" style="edgeLabel;html=1;align=center;verticalAlign=middle;resizable=0;points=[];" vertex="1" connectable="0" parent="IMdrUk2hQlkFjjgOL2_2-10">
          <mxGeometry x="-0.1219" relative="1" as="geometry">
            <mxPoint x="8" y="10" as="offset" />
          </mxGeometry>
        </mxCell>
        <mxCell id="IMdrUk2hQlkFjjgOL2_2-29" value="" style="html=1;points=[];perimeter=orthogonalPerimeter;rounded=0;shadow=0;comic=0;labelBackgroundColor=none;strokeWidth=1;fontFamily=Verdana;fontSize=12;align=center;" vertex="1" parent="IMdrUk2hQlkFjjgOL2_2-8">
          <mxGeometry x="184.55999999999995" y="160" width="10" height="40" as="geometry" />
        </mxCell>
        <mxCell id="IMdrUk2hQlkFjjgOL2_2-30" value="Token" style="html=1;verticalAlign=bottom;endArrow=block;labelBackgroundColor=none;fontFamily=Verdana;fontSize=12;elbow=vertical;entryX=-0.043;entryY=0.23;entryDx=0;entryDy=0;entryPerimeter=0;exitX=1.044;exitY=0.053;exitDx=0;exitDy=0;exitPerimeter=0;" edge="1" parent="IMdrUk2hQlkFjjgOL2_2-8">
          <mxGeometry relative="1" as="geometry">
            <mxPoint x="55" y="159.53999999999996" as="sourcePoint" />
            <mxPoint x="184.1300000000001" y="159.99999999999994" as="targetPoint" />
          </mxGeometry>
        </mxCell>
        <mxCell id="IMdrUk2hQlkFjjgOL2_2-31" value="Gradient, Sub-Route" style="edgeLabel;html=1;align=center;verticalAlign=middle;resizable=0;points=[];" vertex="1" connectable="0" parent="IMdrUk2hQlkFjjgOL2_2-30">
          <mxGeometry x="-0.1219" relative="1" as="geometry">
            <mxPoint x="8" y="10" as="offset" />
          </mxGeometry>
        </mxCell>
        <mxCell id="IMdrUk2hQlkFjjgOL2_2-35" value="Token" style="html=1;verticalAlign=bottom;endArrow=block;labelBackgroundColor=none;fontFamily=Verdana;fontSize=12;elbow=vertical;entryX=-0.043;entryY=0.23;entryDx=0;entryDy=0;entryPerimeter=0;exitX=1.061;exitY=0.515;exitDx=0;exitDy=0;exitPerimeter=0;" edge="1" parent="IMdrUk2hQlkFjjgOL2_2-8" source="IMdrUk2hQlkFjjgOL2_2-29">
          <mxGeometry relative="1" as="geometry">
            <mxPoint x="255.44000000000005" y="180.45999999999998" as="sourcePoint" />
            <mxPoint x="384.57000000000016" y="180.91999999999996" as="targetPoint" />
          </mxGeometry>
        </mxCell>
        <mxCell id="IMdrUk2hQlkFjjgOL2_2-36" value="Gradient, Sub-Route" style="edgeLabel;html=1;align=center;verticalAlign=middle;resizable=0;points=[];" vertex="1" connectable="0" parent="IMdrUk2hQlkFjjgOL2_2-35">
          <mxGeometry x="-0.1219" relative="1" as="geometry">
            <mxPoint x="8" y="10" as="offset" />
          </mxGeometry>
        </mxCell>
        <mxCell id="IMdrUk2hQlkFjjgOL2_2-22" value="FSG" style="shape=umlLifeline;perimeter=lifelinePerimeter;whiteSpace=wrap;html=1;container=1;collapsible=0;recursiveResize=0;outlineConnect=0;rounded=1;shadow=0;comic=0;labelBackgroundColor=none;strokeWidth=1;fontFamily=Verdana;fontSize=12;align=center;" vertex="1" parent="1">
          <mxGeometry x="260" y="80" width="100" height="580" as="geometry" />
        </mxCell>
        <mxCell id="IMdrUk2hQlkFjjgOL2_2-25" value="" style="html=1;points=[];perimeter=orthogonalPerimeter;rounded=0;shadow=0;comic=0;labelBackgroundColor=none;strokeWidth=1;fontFamily=Verdana;fontSize=12;align=center;" vertex="1" parent="IMdrUk2hQlkFjjgOL2_2-22">
          <mxGeometry x="45" y="80" width="10" height="40" as="geometry" />
        </mxCell>
        <mxCell id="IMdrUk2hQlkFjjgOL2_2-24" value="Router" style="shape=umlLifeline;perimeter=lifelinePerimeter;whiteSpace=wrap;html=1;container=1;collapsible=0;recursiveResize=0;outlineConnect=0;rounded=1;shadow=0;comic=0;labelBackgroundColor=none;strokeWidth=1;fontFamily=Verdana;fontSize=12;align=center;" vertex="1" parent="1">
          <mxGeometry x="400" y="80" width="100" height="580" as="geometry" />
        </mxCell>
        <mxCell id="IMdrUk2hQlkFjjgOL2_2-51" style="rounded=0;orthogonalLoop=1;jettySize=auto;html=1;exitX=1.046;exitY=0.491;exitDx=0;exitDy=0;exitPerimeter=0;labelPosition=center;verticalLabelPosition=top;align=center;verticalAlign=bottom;entryX=-0.069;entryY=-0.005;entryDx=0;entryDy=0;entryPerimeter=0;" edge="1" parent="IMdrUk2hQlkFjjgOL2_2-24" target="IMdrUk2hQlkFjjgOL2_2-54">
          <mxGeometry relative="1" as="geometry">
            <mxPoint x="-85" y="99.75999999999999" as="sourcePoint" />
            <mxPoint x="10" y="100" as="targetPoint" />
          </mxGeometry>
        </mxCell>
        <mxCell id="IMdrUk2hQlkFjjgOL2_2-52" value="Token" style="edgeLabel;html=1;align=center;verticalAlign=middle;resizable=0;points=[];" vertex="1" connectable="0" parent="IMdrUk2hQlkFjjgOL2_2-51">
          <mxGeometry x="-0.2442" relative="1" as="geometry">
            <mxPoint x="16" y="-9" as="offset" />
          </mxGeometry>
        </mxCell>
        <mxCell id="IMdrUk2hQlkFjjgOL2_2-53" value="Computing Graph" style="edgeLabel;html=1;align=center;verticalAlign=middle;resizable=0;points=[];" vertex="1" connectable="0" parent="IMdrUk2hQlkFjjgOL2_2-51">
          <mxGeometry x="0.265" y="1" relative="1" as="geometry">
            <mxPoint x="-17" y="11" as="offset" />
          </mxGeometry>
        </mxCell>
        <mxCell id="IMdrUk2hQlkFjjgOL2_2-54" value="" style="html=1;points=[];perimeter=orthogonalPerimeter;rounded=0;shadow=0;comic=0;labelBackgroundColor=none;strokeWidth=1;fontFamily=Verdana;fontSize=12;align=center;" vertex="1" parent="IMdrUk2hQlkFjjgOL2_2-24">
          <mxGeometry x="45" y="100" width="10" height="40" as="geometry" />
        </mxCell>
        <mxCell id="IMdrUk2hQlkFjjgOL2_2-37" value="" style="html=1;points=[];perimeter=orthogonalPerimeter;rounded=0;shadow=0;comic=0;labelBackgroundColor=none;strokeWidth=1;fontFamily=Verdana;fontSize=12;align=center;" vertex="1" parent="1">
          <mxGeometry x="665" y="200" width="10" height="40" as="geometry" />
        </mxCell>
        <mxCell id="IMdrUk2hQlkFjjgOL2_2-38" value="Token" style="html=1;verticalAlign=bottom;endArrow=block;labelBackgroundColor=none;fontFamily=Verdana;fontSize=12;elbow=vertical;exitX=0.992;exitY=0.352;exitDx=0;exitDy=0;exitPerimeter=0;" edge="1" parent="1">
          <mxGeometry relative="1" as="geometry">
            <mxPoint x="454.9200000000001" y="199.99999999999997" as="sourcePoint" />
            <mxPoint x="665" y="199.99999999999997" as="targetPoint" />
          </mxGeometry>
        </mxCell>
        <mxCell id="IMdrUk2hQlkFjjgOL2_2-39" value="Gradient, Route" style="edgeLabel;html=1;align=center;verticalAlign=middle;resizable=0;points=[];" vertex="1" connectable="0" parent="IMdrUk2hQlkFjjgOL2_2-38">
          <mxGeometry x="-0.1219" relative="1" as="geometry">
            <mxPoint x="13" y="10" as="offset" />
          </mxGeometry>
        </mxCell>
        <mxCell id="IMdrUk2hQlkFjjgOL2_2-40" value="Effector&lt;div&gt;Essemble&lt;/div&gt;" style="shape=note;whiteSpace=wrap;html=1;size=14;verticalAlign=top;align=center;spacingTop=-6;rounded=0;shadow=0;comic=0;labelBackgroundColor=none;strokeWidth=1;fontFamily=Verdana;fontSize=12" vertex="1" parent="1">
          <mxGeometry x="40" y="30" width="100" height="35" as="geometry" />
        </mxCell>
        <mxCell id="IMdrUk2hQlkFjjgOL2_2-41" value="Artificial&lt;div&gt;Oscillator&lt;/div&gt;" style="shape=note;whiteSpace=wrap;html=1;size=14;verticalAlign=top;align=center;spacingTop=-6;rounded=0;shadow=0;comic=0;labelBackgroundColor=none;strokeWidth=1;fontFamily=Verdana;fontSize=12" vertex="1" parent="1">
          <mxGeometry x="260" y="30" width="240" height="35" as="geometry" />
        </mxCell>
        <mxCell id="IMdrUk2hQlkFjjgOL2_2-42" value="&lt;div&gt;Modular Multiscale&amp;nbsp;&lt;/div&gt;&lt;div&gt;Liquid State Machine&lt;/div&gt;&lt;div&gt;&lt;br&gt;&lt;/div&gt;" style="shape=note;whiteSpace=wrap;html=1;size=14;verticalAlign=top;align=center;spacingTop=-6;rounded=0;shadow=0;comic=0;labelBackgroundColor=none;strokeWidth=1;fontFamily=Verdana;fontSize=12" vertex="1" parent="1">
          <mxGeometry x="620" y="30" width="380" height="35" as="geometry" />
        </mxCell>
        <mxCell id="IMdrUk2hQlkFjjgOL2_2-43" value="Perceptron&lt;div&gt;Essemble&lt;/div&gt;" style="shape=note;whiteSpace=wrap;html=1;size=14;verticalAlign=top;align=center;spacingTop=-6;rounded=0;shadow=0;comic=0;labelBackgroundColor=none;strokeWidth=1;fontFamily=Verdana;fontSize=12" vertex="1" parent="1">
          <mxGeometry x="1100" y="30" width="100" height="35" as="geometry" />
        </mxCell>
        <mxCell id="IMdrUk2hQlkFjjgOL2_2-26" style="rounded=0;orthogonalLoop=1;jettySize=auto;html=1;entryX=0;entryY=0.007;entryDx=0;entryDy=0;entryPerimeter=0;exitX=1.046;exitY=0.491;exitDx=0;exitDy=0;exitPerimeter=0;labelPosition=center;verticalLabelPosition=top;align=center;verticalAlign=bottom;" edge="1" parent="1" source="IMdrUk2hQlkFjjgOL2_2-23" target="IMdrUk2hQlkFjjgOL2_2-25">
          <mxGeometry relative="1" as="geometry">
            <mxPoint x="315" y="149.88" as="sourcePoint" />
            <mxPoint x="444.88" y="160" as="targetPoint" />
          </mxGeometry>
        </mxCell>
        <mxCell id="IMdrUk2hQlkFjjgOL2_2-27" value="Token" style="edgeLabel;html=1;align=center;verticalAlign=middle;resizable=0;points=[];" vertex="1" connectable="0" parent="IMdrUk2hQlkFjjgOL2_2-26">
          <mxGeometry x="-0.2442" relative="1" as="geometry">
            <mxPoint x="16" y="-9" as="offset" />
          </mxGeometry>
        </mxCell>
        <mxCell id="IMdrUk2hQlkFjjgOL2_2-50" value="Feedback" style="edgeLabel;html=1;align=center;verticalAlign=middle;resizable=0;points=[];" vertex="1" connectable="0" parent="IMdrUk2hQlkFjjgOL2_2-26">
          <mxGeometry x="0.265" y="1" relative="1" as="geometry">
            <mxPoint x="-38" y="11" as="offset" />
          </mxGeometry>
        </mxCell>
      </root>
    </mxGraphModel>
  </diagram>
</mxfile>
